<svg width="21" height="22" viewBox="0 0 21 22" fill="none" xmlns="http://www.w3.org/2000/svg">
<path d="M12.3597 11L19.5263 3.84998C19.8402 3.53614 20.0165 3.11049 20.0165 2.66665C20.0165 2.22281 19.8402 1.79716 19.5263 1.48332C19.2125 1.16948 18.7868 0.993164 18.343 0.993164C17.8992 0.993164 17.4735 1.16948 17.1597 1.48332L10.0097 8.64998L2.85966 1.48332C2.54582 1.16948 2.12017 0.993164 1.67633 0.993164C1.23249 0.993164 0.806837 1.16948 0.492997 1.48332C0.179158 1.79716 0.00284434 2.22281 0.00284433 2.66665C0.00284433 3.11049 0.179158 3.53614 0.492997 3.84998L7.65966 11L0.492997 18.15C0.336783 18.3049 0.212793 18.4893 0.128179 18.6924C0.0435641 18.8955 0 19.1133 0 19.3333C0 19.5533 0.0435641 19.7712 0.128179 19.9743C0.212793 20.1774 0.336783 20.3617 0.492997 20.5166C0.647935 20.6729 0.83227 20.7969 1.03537 20.8815C1.23847 20.9661 1.45631 21.0096 1.67633 21.0096C1.89635 21.0096 2.11419 20.9661 2.31729 20.8815C2.52039 20.7969 2.70473 20.6729 2.85966 20.5166L10.0097 13.35L17.1597 20.5166C17.3146 20.6729 17.4989 20.7969 17.702 20.8815C17.9051 20.9661 18.123 21.0096 18.343 21.0096C18.563 21.0096 18.7809 20.9661 18.984 20.8815C19.1871 20.7969 19.3714 20.6729 19.5263 20.5166C19.6825 20.3617 19.8065 20.1774 19.8911 19.9743C19.9758 19.7712 20.0193 19.5533 20.0193 19.3333C20.0193 19.1133 19.9758 18.8955 19.8911 18.6924C19.8065 18.4893 19.6825 18.3049 19.5263 18.15L12.3597 11Z" fill="#5E5E5E"/>
</svg>
