<svg width="33" height="34" viewBox="0 0 33 34" fill="none" xmlns="http://www.w3.org/2000/svg">
<path d="M16.5 16.5952C18.0188 16.5952 19.25 15.3267 19.25 13.7619C19.25 12.1971 18.0188 10.9286 16.5 10.9286C14.9812 10.9286 13.75 12.1971 13.75 13.7619C13.75 15.3267 14.9812 16.5952 16.5 16.5952Z" stroke="#016B38" stroke-width="2" stroke-linecap="round" stroke-linejoin="round"/>
<path d="M16.5 29.75C16.5 29.75 26.125 22.8846 26.125 14.0577C26.125 11.4565 25.1109 8.96191 23.3059 7.12261C21.5009 5.28331 19.0527 4.25 16.5 4.25C13.9473 4.25 11.4991 5.28331 9.6941 7.12261C7.88906 8.96191 6.875 11.4565 6.875 14.0577C6.875 22.8846 16.5 29.75 16.5 29.75Z" stroke="#016B38" stroke-width="2" stroke-linecap="round" stroke-linejoin="round"/>
</svg>
