<svg width="21" height="21" viewBox="0 0 21 21" fill="none" xmlns="http://www.w3.org/2000/svg">
<path fill-rule="evenodd" clip-rule="evenodd" d="M16.1026 4.92887C15.3749 4.19639 14.5091 3.6156 13.5554 3.22012C12.6016 2.82465 11.5789 2.62237 10.5464 2.62499C6.21688 2.62499 2.69238 6.14862 2.69063 10.4799C2.69063 11.8641 3.052 13.2151 3.73887 14.4069L2.625 18.4765L6.78912 17.3836C7.94097 18.0106 9.23142 18.3394 10.5429 18.34H10.5464C14.875 18.34 18.3995 14.8164 18.4012 10.4851C18.4042 9.45304 18.2026 8.43061 17.8081 7.47692C17.4135 6.52323 16.8339 5.6572 16.1026 4.92887ZM10.5464 17.0144H10.5437C9.37433 17.0145 8.22643 16.6999 7.2205 16.1035L6.9825 15.9617L4.5115 16.6101L5.17037 14.2012L5.0155 13.9545C4.36169 12.9136 4.01558 11.7091 4.01713 10.4799C4.01888 6.88012 6.9475 3.95149 10.549 3.95149C11.4067 3.94959 12.2563 4.11782 13.0486 4.44644C13.8408 4.77506 14.5601 5.25756 15.1646 5.86599C15.7724 6.47153 16.2542 7.19153 16.582 7.98437C16.9099 8.77721 17.0774 9.62717 17.0747 10.4851C17.073 14.0849 14.1444 17.0144 10.5464 17.0144ZM14.1277 12.124C13.9309 12.0251 12.9666 11.5509 12.7864 11.4852C12.607 11.4196 12.4766 11.3872 12.3454 11.5832C12.2141 11.7792 11.8379 12.2211 11.7232 12.3524C11.6086 12.4836 11.494 12.4994 11.298 12.4014C11.102 12.3034 10.4694 12.096 9.7195 11.4275C9.13587 10.9069 8.74212 10.2646 8.6275 10.0677C8.51287 9.87087 8.61525 9.76499 8.71412 9.667C8.8025 9.57949 8.91012 9.43774 9.00812 9.32312C9.10612 9.20849 9.1385 9.12712 9.20412 8.99587C9.26975 8.86462 9.23737 8.74999 9.1875 8.65199C9.1385 8.55312 8.74562 7.58712 8.582 7.19424C8.42362 6.81362 8.26175 6.86437 8.141 6.85912C8.01594 6.854 7.89079 6.85167 7.76562 6.85212C7.6661 6.85466 7.56817 6.87773 7.47798 6.91989C7.38779 6.96205 7.30728 7.02239 7.2415 7.09712C7.06125 7.29399 6.55462 7.76824 6.55462 8.73424C6.55462 9.70024 7.25812 10.6339 7.35612 10.7651C7.45412 10.8964 8.74038 12.8782 10.7091 13.7287C11.1781 13.9309 11.5439 14.0516 11.8282 14.1426C12.2981 14.2922 12.726 14.2704 13.0646 14.2205C13.4417 14.1645 14.2257 13.7462 14.3894 13.2877C14.553 12.8292 14.553 12.4364 14.504 12.3541C14.455 12.2719 14.3229 12.222 14.1277 12.124Z" fill="white"/>
</svg>
