<svg width="13" height="13" viewBox="0 0 13 13" fill="none" xmlns="http://www.w3.org/2000/svg">
<path d="M7.125 4C7.62228 4 8.09919 4.19754 8.45083 4.54917C8.80246 4.90081 9 5.37772 9 5.875C9 6.04076 9.06585 6.19973 9.18306 6.31694C9.30027 6.43415 9.45924 6.5 9.625 6.5C9.79076 6.5 9.94973 6.43415 10.0669 6.31694C10.1842 6.19973 10.25 6.04076 10.25 5.875C10.25 5.0462 9.92076 4.25134 9.33471 3.66529C8.74866 3.07924 7.9538 2.75 7.125 2.75C6.95924 2.75 6.80027 2.81585 6.68306 2.93306C6.56585 3.05027 6.5 3.20924 6.5 3.375C6.5 3.54076 6.56585 3.69973 6.68306 3.81694C6.80027 3.93415 6.95924 4 7.125 4Z" fill="white"/>
<path d="M7.125 1.5C8.28532 1.5 9.39812 1.96094 10.2186 2.78141C11.0391 3.60188 11.5 4.71468 11.5 5.875C11.5 6.04076 11.5658 6.19973 11.6831 6.31694C11.8003 6.43415 11.9592 6.5 12.125 6.5C12.2908 6.5 12.4497 6.43415 12.5669 6.31694C12.6842 6.19973 12.75 6.04076 12.75 5.875C12.75 4.38316 12.1574 2.95242 11.1025 1.89752C10.0476 0.842632 8.61684 0.25 7.125 0.25C6.95924 0.25 6.80027 0.315848 6.68306 0.433058C6.56585 0.550268 6.5 0.70924 6.5 0.875C6.5 1.04076 6.56585 1.19973 6.68306 1.31694C6.80027 1.43415 6.95924 1.5 7.125 1.5ZM12.5938 8.94375C12.5594 8.84342 12.5 8.75348 12.4213 8.68241C12.3426 8.61134 12.2471 8.56147 12.1438 8.5375L8.39375 7.68125C8.29196 7.65817 8.18601 7.66095 8.08557 7.68933C7.98513 7.71772 7.8934 7.77081 7.81875 7.84375C7.73125 7.925 7.725 7.93125 7.31875 8.70625C5.97075 8.0851 4.89062 7.00054 4.275 5.65C5.06875 5.25 5.075 5.25 5.15625 5.15625C5.22919 5.0816 5.28228 4.98987 5.31067 4.88943C5.33905 4.78899 5.34183 4.68304 5.31875 4.58125L4.4625 0.875C4.43853 0.771685 4.38866 0.676169 4.31759 0.597445C4.24652 0.51872 4.15658 0.459376 4.05625 0.425C3.91029 0.372868 3.75957 0.335188 3.60625 0.3125C3.44828 0.275872 3.28708 0.254937 3.125 0.25C2.3625 0.25 1.63124 0.552901 1.09207 1.09207C0.552901 1.63124 0.25 2.3625 0.25 3.125C0.253307 5.67669 1.26843 8.12293 3.07275 9.92725C4.87707 11.7316 7.32331 12.7467 9.875 12.75C10.2526 12.75 10.6264 12.6756 10.9752 12.5312C11.324 12.3867 11.641 12.1749 11.9079 11.9079C12.1749 11.641 12.3867 11.324 12.5312 10.9752C12.6756 10.6264 12.75 10.2526 12.75 9.875C12.7502 9.71592 12.7377 9.55708 12.7125 9.4C12.6862 9.24476 12.6465 9.0921 12.5938 8.94375ZM9.875 11.5C7.65432 11.4983 5.52507 10.6154 3.95481 9.04519C2.38455 7.47493 1.50166 5.34568 1.5 3.125C1.50165 2.69453 1.67338 2.28216 1.97777 1.97777C2.28216 1.67338 2.69453 1.50165 3.125 1.5H3.33125L4 4.4L3.6625 4.575C3.125 4.85625 2.7 5.08125 2.925 5.56875C3.29139 6.60599 3.88423 7.54858 4.66046 8.32805C5.43669 9.10752 6.3768 9.70429 7.4125 10.075C7.9375 10.2875 8.14375 9.89375 8.425 9.35L8.60625 9.00625L11.5 9.66875V9.875C11.4984 10.3055 11.3266 10.7178 11.0222 11.0222C10.7178 11.3266 10.3055 11.4984 9.875 11.5Z" fill="white"/>
</svg>
