<svg width="15" height="15" viewBox="0 0 15 15" fill="none" xmlns="http://www.w3.org/2000/svg">
<path d="M7.5 7.32144C8.19036 7.32144 8.75 6.7618 8.75 6.07144C8.75 5.38109 8.19036 4.82144 7.5 4.82144C6.80964 4.82144 6.25 5.38109 6.25 6.07144C6.25 6.7618 6.80964 7.32144 7.5 7.32144Z" stroke="white" stroke-linecap="round" stroke-linejoin="round"/>
<path d="M7.5 13.125C7.5 13.125 11.875 10.0962 11.875 6.20192C11.875 5.05435 11.4141 3.95378 10.5936 3.14233C9.77312 2.33087 8.66032 1.875 7.5 1.875C6.33968 1.875 5.22688 2.33087 4.40641 3.14233C3.58594 3.95378 3.125 5.05435 3.125 6.20192C3.125 10.0962 7.5 13.125 7.5 13.125Z" stroke="white" stroke-linecap="round" stroke-linejoin="round"/>
</svg>
